<svg xmlns="http://www.w3.org/2000/svg" width="1280" height="640" viewBox="0 0 1280 640" role="img" aria-labelledby="title desc">
  <title id="title">ml-quant-trading social preview</title>
  <desc id="desc">A social preview card for an ML-enhanced multi-factor trading research stack.</desc>
  <defs>
    <linearGradient id="bg" x1="0" x2="1" y1="0" y2="1">
      <stop offset="0%" stop-color="#0b1020"/>
      <stop offset="100%" stop-color="#132544"/>
    </linearGradient>
    <pattern id="grid" width="120" height="90" patternUnits="userSpaceOnUse">
      <path d="M120 0H0V90" fill="none" stroke="#1f2d4a" stroke-width="1"/>
    </pattern>
    <pattern id="heat" width="68" height="68" patternUnits="userSpaceOnUse">
      <rect x="0" y="0" width="24" height="24" rx="5" fill="#1d4ed8"/>
      <rect x="34" y="0" width="24" height="24" rx="5" fill="#0f766e"/>
      <rect x="0" y="34" width="24" height="24" rx="5" fill="#155e75"/>
      <rect x="34" y="34" width="24" height="24" rx="5" fill="#4d7c0f"/>
    </pattern>
  </defs>
  <rect width="1280" height="640" fill="url(#bg)"/>
  <rect x="80" y="70" width="1130" height="540" fill="url(#grid)" opacity="0.55"/>
  <text x="88" y="166" fill="#f8fafc" font-family="Inter, Arial, sans-serif" font-size="76" font-weight="800">ml-quant-trading</text>
  <text x="92" y="222" fill="#cbd5e1" font-family="Inter, Arial, sans-serif" font-size="34">ML-enhanced multi-factor trading research stack</text>
  <g font-family="Inter, Arial, sans-serif" font-size="22" font-weight="700" fill="#dbeafe">
    <rect x="92" y="270" width="150" height="44" rx="22" fill="#13213c" stroke="#334155"/>
    <text x="109" y="300">213 factors</text>
    <rect x="255" y="270" width="204" height="44" rx="22" fill="#13213c" stroke="#334155"/>
    <text x="273" y="300">PyTorch tensors</text>
    <rect x="474" y="270" width="192" height="44" rx="22" fill="#13213c" stroke="#334155"/>
    <text x="491" y="300">Bias correction</text>
    <rect x="680" y="270" width="157" height="44" rx="22" fill="#13213c" stroke="#334155"/>
    <text x="698" y="300">Backtesting</text>
    <rect x="850" y="270" width="143" height="44" rx="22" fill="#13213c" stroke="#334155"/>
    <text x="867" y="300">Markowitz</text>
  </g>
  <g font-family="Inter, Arial, sans-serif" font-size="26" fill="#e2e8f0">
    <circle cx="104" cy="388" r="9" fill="#22c55e"/>
    <text x="130" y="396">Synthetic + public-data demos</text>
    <circle cx="104" cy="436" r="9" fill="#22c55e"/>
    <text x="130" y="444">Masked cross-sectional factor engine</text>
    <circle cx="104" cy="484" r="9" fill="#22c55e"/>
    <text x="130" y="492">Reproducible CI-tested research pipeline</text>
  </g>
  <rect x="835" y="122" width="364" height="160" fill="url(#heat)" opacity="0.9"/>
  <polyline points="815,445 870,410 930,425 990,360 1050,330 1120,280 1190,245" fill="none" stroke="#22c55e" stroke-width="7" stroke-linecap="round" stroke-linejoin="round"/>
  <g fill="#86efac">
    <circle cx="815" cy="445" r="8"/><circle cx="870" cy="410" r="8"/><circle cx="930" cy="425" r="8"/>
    <circle cx="990" cy="360" r="8"/><circle cx="1050" cy="330" r="8"/><circle cx="1120" cy="280" r="8"/><circle cx="1190" cy="245" r="8"/>
  </g>
  <text x="92" y="582" fill="#93c5fd" font-family="Inter, Arial, sans-serif" font-size="25">github.com/initial-d/ml-quant-trading</text>
</svg>
